<svg xmlns="http://www.w3.org/2000/svg" viewBox="0 0 892.4 446.23"><defs><style>.cls-1,.cls-9{fill:#023047;}.cls-2{fill:none;}.cls-3{fill:#8ecae6;}.cls-4{fill:#219ebc;}.cls-5{fill:#f03;opacity:0;}.cls-6{fill:#fc0;}.cls-7{fill:blue;}.cls-8{fill:#fb8500;}.cls-9{font-size:80.99px;font-family:Gotham-Black, Gotham Black;font-weight:800;letter-spacing:0.81em;}.cls-10{letter-spacing:0.82em;}.cls-11{letter-spacing:0.74em;}</style></defs><g id="Capa_2" data-name="Capa 2"><g id="Paleta"><path class="cls-1" d="M504,322c48.23,0,96.45.06,144.67-.1,4.42,0,7,1.15,9.3,4.95,16.1,26.25,32.48,52.33,48.79,78.45,3.1,5,3.18,4.94,6.06-.31,14.39-26.24,28.83-52.46,43.1-78.75,1.62-3,3.32-4.35,7-4.33q44.22.24,88.44,0c3.76,0,5,.84,4.89,4.69-.32,8-.31,16,0,24,.15,3.9-.92,5.08-5,5-22.49-.2-45,0-67.47-.17-3.54,0-5.32,1.06-7,4.2-11.68,21.63-23.64,43.11-35.56,64.62a59.5,59.5,0,0,1-7.82,11.08C721,449,702.63,449.89,689,437.48a61.5,61.5,0,0,1-11-13.72c-13.4-22-28-43.33-40.77-65.72a4.2,4.2,0,0,0-4.45-2.5c-1.35.11-2.73,0-4.09,0q-135.72,0-271.43.09c-4.5,0-6.29-.84-6-5.65a184.76,184.76,0,0,0,0-21.95c-.27-4.69.92-6.16,6-6.13C406.2,322.12,455.1,322,504,322Z"/><path class="cls-2" d="M641.07,199.07l5.53-35.88a40.65,40.65,0,0,0-9.64-3.47q1.71,16.23,3.44,32.45C640.65,194.41,640.88,196.71,641.07,199.07Z"/><path class="cls-3" d="M646.6,163.19l3.29-21.32a63.8,63.8,0,0,0-15.19-3.44q1.13,10.65,2.26,21.29A40.65,40.65,0,0,1,646.6,163.19Z"/><path class="cls-1" d="M625.47,290.23,623,266.91a64.49,64.49,0,0,1-58.82-73.07,112.94,112.94,0,0,1-21.35-19.16c-.73-.86-1.44-1.73-2.12-2.59q-1.25,3.48-2.24,7.11a92.79,92.79,0,0,0,87.62,117Z"/><path class="cls-1" d="M716.87,212.42a87.69,87.69,0,0,1-27.3,9.8A64.55,64.55,0,0,1,636,266.63c-1.17,4.71-2.52,9.47-4.11,14.28-1.06,3.21-2.19,6.32-3.36,9.35-.78,2-1.58,4-2.4,5.94a92.79,92.79,0,0,0,94.39-86C719.33,211,718.12,211.69,716.87,212.42Z"/><path class="cls-1" d="M540.72,172.09c.68.86,1.39,1.73,2.12,2.59a112.94,112.94,0,0,0,21.35,19.16,64.55,64.55,0,0,1,56.14-55.28A159,159,0,0,1,627.89,117c1-2.24,1.93-4.33,2.86-6.25A92.78,92.78,0,0,0,540.72,172.09Z"/><path class="cls-1" d="M654.11,114.5l-.9,5.84-3.32,21.53a64.58,64.58,0,0,1,39.68,80.35,87.69,87.69,0,0,0,27.3-9.8c1.25-.73,2.46-1.47,3.62-2.26A92.76,92.76,0,0,0,654.11,114.5Z"/><path class="cls-1" d="M652.26,114a93.09,93.09,0,0,0-20.49-3.17c.23,2.11.45,4.21.67,6.32q1.14,10.65,2.26,21.31a63.8,63.8,0,0,1,15.19,3.44l3.32-21.53.9-5.84Z"/><path class="cls-4" d="M641.77,223.11a204.74,204.74,0,0,1-2,23.88,40.87,40.87,0,0,0,26-22.42A166.54,166.54,0,0,1,641.77,223.11Z"/><path class="cls-4" d="M639.76,247A197.53,197.53,0,0,1,636,266.63a64.55,64.55,0,0,0,53.6-44.41,133.88,133.88,0,0,1-23.84,2.35A40.87,40.87,0,0,1,639.76,247Z"/><path class="cls-4" d="M617.48,218.2a183.54,183.54,0,0,1-32.18-12c1.07,20.74,15.08,38.65,35.73,41.9q-1.57-14.9-3.14-29.79Z"/><path class="cls-4" d="M585.3,206.2a153.72,153.72,0,0,1-21.11-12.36A64.49,64.49,0,0,0,623,266.91l-2-18.81C600.38,244.85,586.37,226.94,585.3,206.2Z"/><path class="cls-5" d="M585.22,203.17v.47c0,.86,0,1.71.08,2.56a183.54,183.54,0,0,0,32.18,12l.41.11q-.82-7.86-1.66-15.72a160.29,160.29,0,0,1-.2-42.45C597.2,165.23,585.22,182.93,585.22,203.17Z"/><path class="cls-6" d="M585.22,203.64v-.47c0-20.24,12-37.94,30.81-43,.2-1.52.41-3,.65-4.61a159.44,159.44,0,0,1,3.65-17,64.55,64.55,0,0,0-56.14,55.28A153.72,153.72,0,0,0,585.3,206.2C585.25,205.35,585.22,204.5,585.22,203.64Z"/><path class="cls-3" d="M585.22,203.64v-.47c0-20.24,12-37.94,30.81-43,.2-1.52.41-3,.65-4.61a159.44,159.44,0,0,1,3.65-17,64.55,64.55,0,0,0-56.14,55.28A153.72,153.72,0,0,0,585.3,206.2C585.25,205.35,585.22,204.5,585.22,203.64Z"/><path class="cls-5" d="M641.77,223.11a166.54,166.54,0,0,0,24,1.46,48.18,48.18,0,0,0,4.46-20.45v-.48c0-17.31-9-33-23.59-40.45l-5.53,35.88A219.45,219.45,0,0,1,641.77,223.11Z"/><path class="cls-6" d="M670.19,203.64v.48a48.18,48.18,0,0,1-4.46,20.45,133.88,133.88,0,0,0,23.84-2.35,64.58,64.58,0,0,0-39.68-80.35l-3.29,21.32C661.17,170.62,670.19,186.33,670.19,203.64Z"/><path class="cls-3" d="M670.19,203.64v.48a48.18,48.18,0,0,1-4.46,20.45,133.88,133.88,0,0,0,23.84-2.35,64.58,64.58,0,0,0-39.68-80.35l-3.29,21.32C661.17,170.62,670.19,186.33,670.19,203.64Z"/><polygon class="cls-7" points="626.1 296.2 626.1 296.21 626.1 296.2 626.1 296.2"/><polygon class="cls-7" points="626.1 296.21 626.1 296.2 626.1 296.2 626.1 296.21"/><path class="cls-8" d="M631.59,109.06c-.28.55-.56,1.13-.84,1.71l1,0Z"/><path class="cls-8" d="M627.35,290.27H627l-.91,5.94h0c.82-1.93,1.62-3.92,2.4-5.94Z"/><path class="cls-8" d="M636,266.63c-1.77.22-3.57.36-5.38.43L627,290.26h1.49c1.17-3,2.3-6.14,3.36-9.35C633.45,276.1,634.8,271.34,636,266.63Z"/><path class="cls-8" d="M627,290.26l-1.54,0,.63,6h0Z"/><path class="cls-8" d="M628.1,267.11c-1.71,0-3.41-.07-5.09-.2l2.46,23.32,1.54,0,3.58-23.2C629.77,267.09,628.94,267.11,628.1,267.11Z"/><path class="cls-8" d="M632.44,117.12c-.22-2.11-.44-4.21-.67-6.32l-1,0c-.93,1.92-1.89,4-2.86,6.25C629.42,117,630.94,117.05,632.44,117.12Z"/><path class="cls-8" d="M628.1,138.09a65.38,65.38,0,0,1,6.6.34q-1.12-10.65-2.26-21.31c-1.5-.07-3-.1-4.55-.1a159,159,0,0,0-7.56,21.54A66.43,66.43,0,0,1,628.1,138.09Z"/><path class="cls-8" d="M617.89,218.31q1.58,14.9,3.14,29.79a44.26,44.26,0,0,0,6.79.52,45.53,45.53,0,0,0,5.67-.36l4-25.78A188.64,188.64,0,0,1,617.89,218.31Z"/><path class="cls-8" d="M627.82,248.62a44.26,44.26,0,0,1-6.79-.52l2,18.81c1.68.13,3.38.2,5.09.2.84,0,1.67,0,2.49-.05l2.9-18.8A45.53,45.53,0,0,1,627.82,248.62Z"/><path class="cls-8" d="M637.46,222.48l-4,25.78a41.93,41.93,0,0,0,6.27-1.27,204.74,204.74,0,0,0,2-23.88C640.34,222.92,638.91,222.71,637.46,222.48Z"/><path class="cls-8" d="M633.49,248.26l-2.9,18.8c1.81-.07,3.61-.21,5.38-.43A197.53,197.53,0,0,0,639.76,247,41.93,41.93,0,0,1,633.49,248.26Z"/><path class="cls-8" d="M616.23,202.59q.84,7.86,1.66,15.72a188.64,188.64,0,0,0,19.57,4.17l3.61-23.41c-.19-2.36-.42-4.66-.67-6.9q-1.73-16.23-3.44-32.45a44.06,44.06,0,0,0-20.93.42A160.29,160.29,0,0,0,616.23,202.59Z"/><path class="cls-8" d="M620.33,138.56a159.44,159.44,0,0,0-3.65,17c-.24,1.56-.45,3.09-.65,4.61a44.06,44.06,0,0,1,20.93-.42q-1.14-10.65-2.26-21.29a65.38,65.38,0,0,0-6.6-.34A66.43,66.43,0,0,0,620.33,138.56Z"/><path class="cls-8" d="M641.07,199.07l-3.61,23.41c1.45.23,2.88.44,4.31.63A219.45,219.45,0,0,0,641.07,199.07Z"/></g><g id="ELEMENTOS"><path class="cls-1" d="M71.53,128.44h39.35a3.89,3.89,0,0,1,3.58,2.37l67.64,160a3.88,3.88,0,0,1-3.58,5.39h-41a3.89,3.89,0,0,1-3.6-2.41l-10.17-24.92a3.87,3.87,0,0,0-3.59-2.42h-59a3.89,3.89,0,0,0-3.61,2.45l-9.94,24.86A3.88,3.88,0,0,1,44,296.22H3.89a3.88,3.88,0,0,1-3.58-5.39L68,130.81A3.89,3.89,0,0,1,71.53,128.44Zm35.8,96.8-12.89-32.9a3.88,3.88,0,0,0-7.22,0L74.16,225.22a3.88,3.88,0,0,0,3.6,5.32h26A3.88,3.88,0,0,0,107.33,225.24Z"/><path class="cls-1" d="M204.45,129.63h37.29a3.88,3.88,0,0,1,3.07,1.5l65.56,84.24a1,1,0,0,0,1.81-.62V133.51a3.88,3.88,0,0,1,3.88-3.88H354a3.89,3.89,0,0,1,3.89,3.88V292.34a3.88,3.88,0,0,1-3.89,3.88H319.31a3.9,3.9,0,0,1-3.06-1.49l-63.05-81a3.88,3.88,0,0,0-6.94,2.38v76.2a3.88,3.88,0,0,1-3.88,3.88H204.45a3.88,3.88,0,0,1-3.89-3.88V133.51A3.89,3.89,0,0,1,204.45,129.63Z"/><path class="cls-1" d="M424.2,170.09H382a3.89,3.89,0,0,1-3.89-3.88v-32.7a3.89,3.89,0,0,1,3.89-3.88H520.35a3.88,3.88,0,0,1,3.88,3.88v32.7a3.88,3.88,0,0,1-3.88,3.88H478.13a3.88,3.88,0,0,0-3.88,3.88V292.34a3.88,3.88,0,0,1-3.88,3.88H432a3.88,3.88,0,0,1-3.88-3.88V174A3.88,3.88,0,0,0,424.2,170.09Z"/><path class="cls-1" d="M739,129.63h37.3a3.85,3.85,0,0,1,3.06,1.5l60.43,77.63a3.88,3.88,0,0,0,7-2.38V133.51a3.88,3.88,0,0,1,3.88-3.88h37.93a3.88,3.88,0,0,1,3.88,3.88V292.34a3.87,3.87,0,0,1-3.88,3.88H853.84a3.9,3.9,0,0,1-3.06-1.49l-63-81a3.88,3.88,0,0,0-6.94,2.38v76.2a3.88,3.88,0,0,1-3.89,3.88H739a3.88,3.88,0,0,1-3.88-3.88V133.51A3.88,3.88,0,0,1,739,129.63Z"/><text class="cls-9" transform="translate(116.94 68.84)">R<tspan class="cls-10" x="123.91" y="0">A</tspan><tspan class="cls-11" x="254.95" y="0">F</tspan><tspan class="cls-10" x="367.61" y="0">AEL</tspan></text></g></g></svg>